<svg height="512pt" viewBox="-33 0 512 512.00103" width="512pt" xmlns="http://www.w3.org/2000/svg"><path d="m381.707031 222.566406h-45.28125c-11.078125 0-20.085937 9.007813-20.085937 20.085938v121.3125c0 11.074218 9.007812 20.085937 20.085937 20.085937h17.863281v40.398438c0 18.574219-15.109374 33.683593-33.683593 33.683593h-10.40625v31.035157h10.40625c35.683593 0 64.71875-29.03125 64.71875-64.71875v-40.507813c33.820312-1.878906 60.761719-29.984375 60.761719-64.269531v-32.726563c0-35.5-28.878907-64.378906-64.378907-64.378906zm0 0"/><path d="m109.660156 222.566406h-45.28125c-35.5 0-64.378906 28.878906-64.378906 64.378906v32.726563c0 35.496094 28.878906 64.375 64.378906 64.375h45.28125c11.078125 0 20.085938-9.007813 20.085938-20.085937v-121.308594c0-11.078125-9.007813-20.085938-20.085938-20.085938zm0 0"/><path d="m263.648438 435.300781h-57.542969c-16.542969 0-30 13.457031-30 30v16.699219c0 16.542969 13.457031 30 30 30h57.542969c8.570312 0 15.515624-6.945312 15.515624-15.515625v-45.667969c0-8.570312-6.945312-15.515625-15.515624-15.515625zm0 0"/><path d="m250.238281 65.992188c46.894531 0 85.050781 38.152343 85.050781 85.046874v40.523438c.378907-.011719.753907-.03125 1.136719-.03125h45.28125c6.707031 0 13.253907.699219 19.574219 2.023438v-42.515626c0-83.28125-67.757812-151.039062-151.042969-151.039062h-54.390625c-83.285156 0-151.042968 67.757812-151.042968 151.039062v42.515626c6.320312-1.324219 12.867187-2.023438 19.574218-2.023438h45.28125c.382813 0 .757813.019531 1.136719.03125v-40.523438c0-46.894531 38.152344-85.046874 85.050781-85.046874zm0 0"/></svg>