<?xml version="1.0"?>
<svg xmlns="http://www.w3.org/2000/svg" xmlns:xlink="http://www.w3.org/1999/xlink" xmlns:svgjs="http://svgjs.com/svgjs" version="1.1" width="512" height="512" x="0" y="0" viewBox="0 0 512 512" style="enable-background:new 0 0 512 512" xml:space="preserve" class=""><g><path xmlns="http://www.w3.org/2000/svg" d="m104 312h304a8 8 0 0 0 8-8v-32a8 8 0 0 0 -8-8h-304a8 8 0 0 0 -8 8v32a8 8 0 0 0 8 8zm296-16h-16v-16h16zm-288-16h256v16h-256z" fill="#007bff" data-original="#000000" style=""/><path xmlns="http://www.w3.org/2000/svg" d="m208.109 225.315a8 8 0 0 0 7.891 6.685h80a8 8 0 0 0 7.892-6.685l7.8-46.815 5.25-10.5h11.058a8 8 0 0 0 0-16h-16a8 8 0 0 0 -7.155 4.422l-5.789 11.578h-91.056a8 8 0 0 0 -7.891 9.315zm86.448-41.315-5.334 32h-66.446l-5.333-32z" fill="#007bff" data-original="#000000" style=""/><path xmlns="http://www.w3.org/2000/svg" d="m176 328h-96a8 8 0 0 0 -8 8v64a8 8 0 0 0 8 8h96a8 8 0 0 0 8-8v-64a8 8 0 0 0 -8-8zm-8 64h-80v-48h80z" fill="#007bff" data-original="#000000" style=""/><path xmlns="http://www.w3.org/2000/svg" d="m304 328h-96a8 8 0 0 0 -8 8v64a8 8 0 0 0 8 8h96a8 8 0 0 0 8-8v-64a8 8 0 0 0 -8-8zm-8 64h-80v-48h80z" fill="#007bff" data-original="#000000" style=""/><path xmlns="http://www.w3.org/2000/svg" d="m432 328h-96a8 8 0 0 0 -8 8v64a8 8 0 0 0 8 8h96a8 8 0 0 0 8-8v-64a8 8 0 0 0 -8-8zm-8 64h-80v-48h80z" fill="#007bff" data-original="#000000" style=""/><path xmlns="http://www.w3.org/2000/svg" d="m40 472h432a24.028 24.028 0 0 0 24-24v-384a24.028 24.028 0 0 0 -24-24h-432a24.028 24.028 0 0 0 -24 24v384a24.028 24.028 0 0 0 24 24zm432-16h-432a8.009 8.009 0 0 1 -8-8v-328h448v328a8.009 8.009 0 0 1 -8 8zm-432-400h432a8.009 8.009 0 0 1 8 8v40h-448v-40a8.009 8.009 0 0 1 8-8z" fill="#007bff" data-original="#000000" style=""/><circle xmlns="http://www.w3.org/2000/svg" cx="120" cy="80" r="8" fill="#007bff" data-original="#000000" style=""/><circle xmlns="http://www.w3.org/2000/svg" cx="88" cy="80" r="8" fill="#007bff" data-original="#000000" style=""/><circle xmlns="http://www.w3.org/2000/svg" cx="56" cy="80" r="8" fill="#007bff" data-original="#000000" style=""/><path xmlns="http://www.w3.org/2000/svg" d="m136 424h-48a8 8 0 0 0 0 16h48a8 8 0 0 0 0-16z" fill="#007bff" data-original="#000000" style=""/><circle xmlns="http://www.w3.org/2000/svg" cx="168" cy="432" r="8" fill="#007bff" data-original="#000000" style=""/><path xmlns="http://www.w3.org/2000/svg" d="m264 424h-48a8 8 0 0 0 0 16h48a8 8 0 0 0 0-16z" fill="#007bff" data-original="#000000" style=""/><circle xmlns="http://www.w3.org/2000/svg" cx="296" cy="432" r="8" fill="#007bff" data-original="#000000" style=""/><path xmlns="http://www.w3.org/2000/svg" d="m392 424h-48a8 8 0 0 0 0 16h48a8 8 0 0 0 0-16z" fill="#007bff" data-original="#000000" style=""/><circle xmlns="http://www.w3.org/2000/svg" cx="424" cy="432" r="8" fill="#007bff" data-original="#000000" style=""/><circle xmlns="http://www.w3.org/2000/svg" cx="224" cy="240" r="8" fill="#007bff" data-original="#000000" style=""/><circle xmlns="http://www.w3.org/2000/svg" cx="288" cy="240" r="8" fill="#007bff" data-original="#000000" style=""/></g></svg>
